<?xml version="1.0" standalone="no"?><!DOCTYPE svg PUBLIC "-//W3C//DTD SVG 1.1//EN" "http://www.w3.org/Graphics/SVG/1.1/DTD/svg11.dtd"><svg t="1713941979154" class="icon" viewBox="0 0 1024 1024" version="1.1" xmlns="http://www.w3.org/2000/svg" p-id="4798" xmlns:xlink="http://www.w3.org/1999/xlink" width="200" height="200"><path d="M297.5744 653.7216A337.73568 337.73568 0 0 0 184.32 906.24a20.48 20.48 0 1 1-40.96 0 378.96192 378.96192 0 0 1 235.76576-350.90432 20.48 20.48 0 1 1 15.48288 37.90848 337.92 337.92 0 0 0-64.75776 35.10272L522.24 839.94624l192.36864-211.59936a338.04288 338.04288 0 0 0-62.40256-34.14016 20.48 20.48 0 1 1 15.7696-37.80608A378.94144 378.94144 0 0 1 901.12 906.24a20.48 20.48 0 1 1-40.96 0 337.7152 337.7152 0 0 0-113.2544-252.5184L537.3952 884.18304a20.48 20.48 0 0 1-30.3104 0L297.5744 653.7216zM522.24 552.96c-113.11104 0-204.8-91.68896-204.8-204.8s91.68896-204.8 204.8-204.8 204.8 91.68896 204.8 204.8-91.68896 204.8-204.8 204.8z m-24.576 20.48h49.152a20.48 20.48 0 0 1 19.72224 14.9504l36.864 131.66592a20.48 20.48 0 0 1-6.38976 21.07392l-61.44 52.65408a20.48 20.48 0 0 1-26.66496 0l-61.44-52.65408a20.48 20.48 0 0 1-6.38976-21.0944l36.864-131.64544A20.48 20.48 0 0 1 497.664 573.44z m24.576-61.44a163.84 163.84 0 1 0 0-327.68 163.84 163.84 0 0 0 0 327.68z m-38.1952 206.52032l38.1952 32.74752 38.1952-32.74752L531.29216 614.4h-18.10432l-29.14304 104.12032z" fill="#d81e06" p-id="4799"></path></svg>