<?xml version="1.0" standalone="no"?><!DOCTYPE svg PUBLIC "-//W3C//DTD SVG 1.1//EN" "http://www.w3.org/Graphics/SVG/1.1/DTD/svg11.dtd"><svg t="1713942237502" class="icon" viewBox="0 0 1024 1024" version="1.1" xmlns="http://www.w3.org/2000/svg" p-id="8901" xmlns:xlink="http://www.w3.org/1999/xlink" width="200" height="200"><path d="M840.96 948.48h-6.093L513.28 815.309 191.693 948.48H185.6c-68.403 0-112.64-52.275-112.64-133.12V323.84c0-73.42 59.7-133.12 133.12-133.12h614.4c73.42 0 133.12 59.7 133.12 133.12v491.52c0 80.896-44.237 133.12-112.64 133.12zM513.28 748.851l333.21 137.984c39.577-3.584 45.67-45.824 45.67-71.424v-491.52c0-39.526-32.154-71.68-71.68-71.68h-614.4c-39.526 0-71.68 32.154-71.68 71.68v491.52c0 25.6 6.093 67.84 45.67 71.424l333.21-137.984z m409.6-617.011h-819.2c-16.947 0-30.72-13.773-30.72-30.72S86.733 70.4 103.68 70.4h819.2c16.947 0 30.72 13.773 30.72 30.72s-13.773 30.72-30.72 30.72z" fill="#dbdbdb" p-id="8902"></path><path d="M614.502 694.733c-4.915 0-9.779-1.178-14.284-3.533l-86.99-45.722-86.937 45.722a30.684 30.684 0 0 1-32.358-2.355 30.771 30.771 0 0 1-12.237-30.055l16.589-96.819-70.298-68.608a30.833 30.833 0 0 1-7.782-31.488 30.735 30.735 0 0 1 24.78-20.89l97.23-14.13 43.468-88.116c5.171-10.496 15.872-17.1 27.546-17.1s22.374 6.655 27.545 17.1l43.47 88.115 97.228 14.132a30.669 30.669 0 0 1 24.78 20.89 30.618 30.618 0 0 1-7.782 31.487l-70.348 68.557 16.588 96.82c1.997 11.52-2.764 23.193-12.236 30.054a29.804 29.804 0 0 1-17.972 5.939zM513.28 580.045c4.915 0 9.83 1.177 14.285 3.533l46.182 24.268-8.806-51.404c-1.69-9.984 1.587-20.122 8.857-27.188l37.325-36.403-51.61-7.475a30.69 30.69 0 0 1-23.142-16.794l-23.091-46.745-23.091 46.745a30.605 30.605 0 0 1-23.143 16.794l-51.61 7.475 37.326 36.403a30.874 30.874 0 0 1 8.857 27.188l-8.806 51.404 46.182-24.268a30.561 30.561 0 0 1 14.285-3.533z" fill="#dbdbdb" p-id="8903"></path></svg>