<?xml version="1.0" standalone="no"?><!DOCTYPE svg PUBLIC "-//W3C//DTD SVG 1.1//EN" "http://www.w3.org/Graphics/SVG/1.1/DTD/svg11.dtd"><svg t="1713942831326" class="icon" viewBox="0 0 1024 1024" version="1.1" xmlns="http://www.w3.org/2000/svg" p-id="17402" data-spm-anchor-id="a313x.search_index.0.i38.57293a81Yp4WzO" xmlns:xlink="http://www.w3.org/1999/xlink" width="200" height="200"><path d="M250.752 146.688l230.976-40.512a128 128 0 0 1 112.64 35.584l337.28 337.28a128 128 0 0 1 0 181.056l-271.552 271.488a128 128 0 0 1-181.056 0l-337.28-337.28a128 128 0 0 1-35.52-112.64l40.576-231.04a128 128 0 0 1 103.936-103.936z m-28.288 117.248l-40.576 231.04a51.2 51.2 0 0 0 14.208 45.056l337.28 337.28a51.2 51.2 0 0 0 72.384 0l271.552-271.552a51.2 51.2 0 0 0 0-72.384l-337.28-337.28a51.2 51.2 0 0 0-45.056-14.272l-230.912 40.512a51.2 51.2 0 0 0-41.6 41.6z m134.4 92.928a124.8 124.8 0 1 1 176.512 176.512 124.8 124.8 0 0 1-176.512-176.512z m54.336 54.336a48 48 0 1 0 67.84 67.84 48 48 0 0 0-67.84-67.84z" p-id="17403" fill="#d81e06" data-spm-anchor-id="a313x.search_index.0.i36.57293a81Yp4WzO" class=""></path></svg>