<?xml version="1.0" standalone="no"?><!DOCTYPE svg PUBLIC "-//W3C//DTD SVG 1.1//EN" "http://www.w3.org/Graphics/SVG/1.1/DTD/svg11.dtd"><svg t="1713942852936" class="icon" viewBox="0 0 1024 1024" version="1.1" xmlns="http://www.w3.org/2000/svg" p-id="18638" data-spm-anchor-id="a313x.search_index.0.i40.57293a81Yp4WzO" xmlns:xlink="http://www.w3.org/1999/xlink" width="200" height="200"><path d="M848.089385 1023.856983c-3.289385 0-6.435754-0.858101-9.296089-2.717318l-156.031285-96.965363c-0.858101-0.42905-1.716201-0.715084-2.717318-0.715084h-0.858101c-24.598883 3.861453-49.054749 5.863687-72.509497 5.863687-106.404469 0-207.946369-35.75419-285.747486-100.683799-5.863687-4.86257-8.008939-12.728492-5.434637-19.879329 2.574302-7.293855 9.153073-11.870391 16.875978-11.870392h5.72067c14.015642 0 28.460335-0.572067 44.192179-1.716201 0.715084 0 1.430168-0.143017 2.002235-0.143016 5.72067 0 11.155307 1.716201 15.87486 4.862569 59.924022 39.758659 131.289385 60.639106 206.516201 60.639107 24.741899 0 50.198883-2.574302 75.941899-7.722905 1.144134-0.286034 2.288268-0.286034 3.432403-0.286034 3.575419 0 7.007821 1.001117 9.868156 3.003352l67.503911 45.47933h-0.143017l18.735195 12.442458c0.858101 0.572067 1.859218 0.858101 2.860336 0.8581 2.431285 0 5.148603-2.002235 5.148603-5.148603v-84.808939c0-6.292737 3.289385-12.299441 8.724022-15.44581 93.532961-55.347486 149.309497-147.021229 149.309498-244.844692 0-60.067039-20.880447-117.988827-60.353073-167.75866-5.005587-6.292737-7.293855-14.444693-6.292737-22.453631 2.288268-17.877095 3.432402-33.894972 3.432402-49.054749 0-4.86257 1.859218-9.296089 5.148603-12.728491 3.432402-3.432402 8.008939-5.29162 12.871508-5.29162 4.576536 0 9.010056 1.859218 12.442459 5.148603 70.078212 68.505028 108.692737 156.603352 108.692737 248.420112 0 57.778771-14.730726 113.126257-43.763128 164.469274-27.030168 47.910615-66.502793 90.815642-114.127375 124.281564v156.746369c-0.143017 10.011173-8.151955 18.020112-18.020112 18.020111z" fill="#d81e06" p-id="18639"></path><path d="M175.910615 832.643575c-9.868156 0-17.877095-8.151955-17.877095-18.020111V666.744134c0-5.434637-2.717318-10.726257-7.150838-14.015642C54.918436 582.221229 0 478.820112 0 369.126257c0-98.681564 43.477095-191.499441 122.565363-261.29162C201.224581 38.328492 305.912849 0 417.179888 0s215.955307 38.328492 294.757542 107.834637c78.945251 69.792179 122.565363 162.467039 122.565363 261.29162 0 98.681564-43.477095 191.499441-122.565363 261.29162-78.802235 69.506145-183.347486 107.834637-294.757542 107.834637-22.167598 0-45.050279-1.716201-68.218994-5.148603-0.858101-0.143017-1.716201-0.143017-2.431285-0.143017-3.146369 0-6.292737 0.858101-9.010056 2.574302l-152.312849 94.534078c-2.860335 1.573184-6.006704 2.574302-9.296089 2.574301zM417.179888 76.513966c-188.210056 0-341.237989 133.005587-341.237989 296.473743 0 95.678212 53.774302 185.921788 143.874861 241.555308 8.724022 5.434637 14.158659 15.159777 14.158659 25.6V717.944134c0 1.859218 0.858101 3.003352 1.573184 3.718436 1.001117 1.001117 2.288268 1.430168 3.575419 1.430167 1.001117 0 2.002235-0.286034 2.860336-0.8581l19.879329-13.300559-0.143017-0.143017 62.212291-41.90391c4.86257-3.289385 10.58324-5.005587 16.589944-5.005587 1.859218 0 3.718436 0.143017 5.577654 0.572067 24.026816 4.576536 48.053631 6.864804 71.222346 6.864805 188.210056 0 341.237989-133.005587 341.237989-296.473743-0.143017-163.32514-153.17095-296.330726-341.381006-296.330727z" fill="#d81e06" p-id="18640" data-spm-anchor-id="a313x.search_index.0.i42.57293a81Yp4WzO" class="selected"></path><path d="M622.551955 427.334078c-29.604469 0-53.774302-24.312849-53.774301-54.203352s24.169832-54.203352 53.774301-54.203352 53.774302 24.312849 53.774302 54.203352c0 29.747486-24.026816 54.203352-53.774302 54.203352zM433.054749 427.334078c-29.604469 0-53.774302-24.312849-53.774302-54.203352s24.169832-54.203352 53.774302-54.203352c29.604469 0 53.774302 24.312849 53.774301 54.203352-0.143017 29.747486-24.169832 54.203352-53.774301 54.203352zM243.414525 427.334078c-29.604469 0-53.774302-24.312849-53.774302-54.203352s24.169832-54.203352 53.774302-54.203352c29.604469 0 53.774302 24.312849 53.774302 54.203352 0 29.747486-24.169832 54.203352-53.774302 54.203352z" fill="#d81e06" p-id="18641" data-spm-anchor-id="a313x.search_index.0.i41.57293a81Yp4WzO" class=""></path></svg>